<svg xmlns="http://www.w3.org/2000/svg" xmlns:xlink="http://www.w3.org/1999/xlink" width="0" height="0" style="position:absolute">
    <defs>
      
        <svg width="72" height="76" viewBox="0 0 72 76" id="1"><title>Group 116</title><g transform="rotate(-15 6.058 -3.066)" stroke="#9FB3C3" stroke-width="2" fill="none" fill-rule="evenodd"><g><path d="M16.156 49.107V28.584H48.47v32.313H26.636M32.313 29.04V41.8M0 0l5.995 5.878c1.837 1.801 3.326 5.35 3.326 7.928v45.417M54.52 67.732H19.885"></path><circle stroke-linejoin="round" cx="10.564" cy="68.975" r="9.321"></circle></g><circle stroke-linejoin="round" cx="10.564" cy="68.975" r="3.379"></circle></g></svg>
      
        <svg width="66" height="56" viewBox="0 0 66 56" id="2"><title>Group 17</title><path d="M22 11.228h26v-10l17 17-17 19v-9H17v-8l-16 17 16 17v-9h27" fill="#FFF" stroke="#9FB3C3" stroke-width="2" fill-rule="evenodd" stroke-linejoin="round"></path></svg>
      
        <svg width="22" height="22" viewBox="0 0 22 22" id="all_prev"><title>Group 34</title><g fill="none" fill-rule="evenodd"><rect fill="#9FB3C3" width="22" height="22" rx="11"></rect><path fill="#FFF" d="M13.765 6.657l-4.509 4.446 4.188 4.749-1.372 1.353-5.463-6.195 5.882-5.798z"></path></g></svg>
      
        <svg width="18" height="18" viewBox="0 0 18 18" id="drag"><title>Group 30</title><g fill="#DDE3E8" fill-rule="evenodd"><circle cx="1.5" cy="1.5" r="1.5"></circle><circle cx="1.5" cy="6.5" r="1.5"></circle><circle cx="6.5" cy="1.5" r="1.5"></circle><circle cx="6.5" cy="6.5" r="1.5"></circle><circle cx="1.5" cy="11.5" r="1.5"></circle><circle cx="6.5" cy="11.5" r="1.5"></circle><circle cx="11.5" cy="1.5" r="1.5"></circle><circle cx="11.5" cy="6.5" r="1.5"></circle><circle cx="1.5" cy="16.5" r="1.5"></circle><circle cx="16.5" cy="1.5" r="1.5"></circle></g></svg>
      
        <svg width="12" height="23" viewBox="0 0 12 23" id="fb"><title>Fill 1</title><path d="M3.545 23c-.009-.165-.026-.33-.026-.496v-9.958H0V8.414h3.518c0-.718.002-1.38 0-2.04-.003-1.026-.04-2.05.278-3.048C4.428 1.347 6.13.035 8.206.003c1.11-.017 2.222.049 3.332.08.184.004.36.012.359.28-.006 1.15-.003 2.299-.003 3.513-.243 0-.457-.006-.67 0-.753.024-1.51.018-2.259.088-.693.065-1.154.519-1.188 1.22-.05 1.047-.013 2.1-.013 3.212h3.962c-.095.788-.178 1.513-.27 2.236-.065.507-.174 1.011-.2 1.52-.02.36-.187.392-.47.388-.879-.012-1.757-.004-2.636-.004h-.457v.522l-.001 9.446c0 .165-.017.33-.026.496h-4.12z" fill="#4C4C4C" fill-rule="evenodd"></path></svg>
      
        <svg width="22" height="23" viewBox="0 0 22 23" id="inst"><title>Group 5</title><g fill="#4C4C4C" fill-rule="evenodd"><path d="M20.34 11.502h.001c0-1.65.005-3.3-.004-4.95a4.94 4.94 0 0 0-.095-.963 4.786 4.786 0 0 0-1.231-2.38C18.052 2.2 16.885 1.691 15.51 1.69c-3.049-.004-6.097-.004-9.145.003-.301.001-.608.033-.903.097A4.716 4.716 0 0 0 2.684 3.54c-.7.894-1.042 1.927-1.044 3.068-.005 3.24-.006 6.479.005 9.718.002.401.047.81.132 1.2a4.708 4.708 0 0 0 1.66 2.699c.847.695 1.823 1.074 2.913 1.079 3.073.012 6.146.005 9.219.006a4.57 4.57 0 0 0 1.442-.237 4.742 4.742 0 0 0 2.357-1.707c.615-.821.952-1.752.966-2.778.024-1.695.007-3.39.007-5.085m1.655 4.826c-.006 1.454-.393 2.793-1.25 3.968-.948 1.3-2.196 2.152-3.754 2.521a6.744 6.744 0 0 1-1.562.177c-2.989 0-5.978.002-8.966 0a6.322 6.322 0 0 1-2.397-.467 6.383 6.383 0 0 1-2.385-1.678A6.541 6.541 0 0 1 .2 18.066 6.555 6.555 0 0 1 0 16.424c.003-3.345.005-6.69.01-10.035C.01 5.57.192 4.785.5 4.032a6.461 6.461 0 0 1 1.49-2.2A6.42 6.42 0 0 1 4.367.362C5.112.103 5.878.005 6.66.004c2.965 0 5.929-.011 8.893.005a6.24 6.24 0 0 1 4 1.434 6.439 6.439 0 0 1 2.222 3.468c.104.405.181.83.186 1.248.02 1.785.008 3.57.008 5.354.029 1.605.034 3.21.027 4.815z"></path><path d="M17.267 6.555c-.67.03-1.297-.591-1.266-1.34.027-.65.606-1.227 1.287-1.215a1.278 1.278 0 0 1 1.249 1.359c-.028.626-.584 1.22-1.27 1.196M7.665 11.493c0 .105-.004.21 0 .314.006.104.013.209.032.311.168.9.571 1.668 1.27 2.271.89.771 1.92 1.073 3.087.917a3.6 3.6 0 0 0 1.955-.903c.874-.78 1.317-1.771 1.344-2.936a4.89 4.89 0 0 0-.113-1.127c-.218-1.019-.799-1.775-1.736-2.243-.46-.229-.952-.347-1.462-.412-.441-.056-.882-.077-1.317.01-.854.171-1.57.586-2.134 1.257a3.804 3.804 0 0 0-.926 2.54m8.362 3.08c-.832 1.226-1.976 2.01-3.423 2.307-1.52.312-2.947.02-4.226-.863-1.207-.833-1.953-1.994-2.263-3.428a5.042 5.042 0 0 1-.083-1.635c.121-1.071.497-2.043 1.17-2.893.836-1.053 1.914-1.716 3.23-1.974a5.462 5.462 0 0 1 1.677-.041 6.53 6.53 0 0 1 1.76.427c1.11.457 1.962 1.209 2.522 2.275.302.577.486 1.195.55 1.846.026.26.047.519.059.656-.014 1.285-.319 2.359-.973 3.323z"></path></g></svg>
      
        <svg width="14" height="14" viewBox="0 0 14 14" id="plus"><title>Group 20</title><g transform="translate(1 1)" stroke="#A5CC33" stroke-width="2" fill="none" fill-rule="evenodd" stroke-linecap="round"><path d="M6 0v12M0 6h12"></path></g></svg>
      
        <svg width="26" height="16" viewBox="0 0 26 16" id="vk"><title>Fill 1</title><path d="M15.08 4.206h-.001c0-.859.001-1.717-.001-2.575 0-.108-.011-.218-.034-.324-.067-.303-.293-.474-.615-.475L9.958.833a.757.757 0 0 0-.167.018c-.333.077-.604.496-.373.857.12.188.271.358.407.537.424.56.595 1.193.595 1.876 0 .97.003 1.938-.002 2.907-.002.455-.016.91-.03 1.364-.008.237-.128.413-.313.467a.615.615 0 0 1-.487-.078c-.34-.194-.598-.473-.852-.758-.601-.674-1.079-1.428-1.522-2.201a23.817 23.817 0 0 1-.89-1.72c-.288-.614-.539-1.243-.805-1.865-.136-.318-.252-.645-.407-.954a.794.794 0 0 0-.727-.446 144.363 144.363 0 0 0-3.22 0C.84.84.487 1.076.5 1.492c.014.477.146.925.284 1.373.258.841.582 1.66.986 2.445.412.803.82 1.612 1.293 2.382.54.88 1.138 1.728 1.735 2.574.308.437.653.852 1.01 1.252.291.325.615.624.945.912.35.306.713.602 1.093.873a9.943 9.943 0 0 0 3.195 1.519c.634.171 1.28.273 1.939.286.258.005.52-.003.776-.032.272-.03.545-.076.808-.148.344-.093.512-.337.515-.672.01-.952.014-1.904.035-2.857.008-.331.165-.563.567-.574.457-.012.847.132 1.198.378.419.294.835.596 1.216.933.505.447.978.926 1.458 1.398.412.406.804.83 1.224 1.229.235.222.543.341.875.344.98.008 1.96.01 2.939-.003.187-.003.39-.055.556-.139.317-.16.44-.49.289-.877-.146-.375-.32-.754-.56-1.076A28.922 28.922 0 0 0 23.38 11.2c-.373-.422-.79-.808-1.186-1.211-.335-.341-.677-.676-.998-1.028-.171-.187-.29-.414-.202-.677.041-.125.108-.246.183-.356.32-.463.65-.92.97-1.383.752-1.084 1.487-2.179 2.127-3.33.278-.5.545-1.003.66-1.563a.89.89 0 0 0-.016-.465c-.1-.271-.358-.352-.63-.353a361.932 361.932 0 0 0-3.08-.002c-.372.002-.685.154-.869.457-.207.342-.358.717-.538 1.075-.59 1.177-1.235 2.325-2.022 3.393-.436.592-.877 1.18-1.47 1.638-.179.139-.389.25-.6.339-.214.09-.417.01-.492-.203a2.12 2.12 0 0 1-.131-.66c-.015-.89-.006-1.778-.006-2.666" fill="#4C4C4C" fill-rule="evenodd"></path></svg>
      
  </defs>
</svg>
