<?xml version="1.0" encoding="UTF-8"?>
<svg width="21px" height="24px" viewBox="0 0 21 24" version="1.1" xmlns="http://www.w3.org/2000/svg" xmlns:xlink="http://www.w3.org/1999/xlink">
    <!-- Generator: Sketch 48.2 (47327) - http://www.bohemiancoding.com/sketch -->
    <title>Group 12</title>
    <desc>Created with Sketch.</desc>
    <defs></defs>
    <g id="Мой-профиль-(Доступы)-новый-пользователь" stroke="none" stroke-width="1" fill="none" fill-rule="evenodd" transform="translate(-972.000000, -269.000000)">
        <g id="Group-11" transform="translate(724.000000, 60.000000)">
            <g id="Group-13" transform="translate(20.000000, 81.000000)">
                <g id="Group-15">
                    <g id="Group-16">
                        <g id="Group-12" transform="translate(229.000000, 129.000000)">
                            <g id="Page-1" transform="translate(0.000000, 6.000000)" fill="#9FB3C3">
                                <g id="Group-3">
                                    <path d="M9.98155155,9.38742205 C12.0660691,9.39088678 13.7755559,7.6585248 13.7760361,5.54207343 C13.7765163,3.35088302 12.098242,1.60367223 9.99403657,1.60466215 C7.95993932,1.60565207 6.2298042,3.32959971 6.22404189,5.36190779 C6.21731919,7.63328182 7.85093553,9.38395733 9.98155155,9.38742205 M19.0312675,4.01215033 C19.3097794,4.32199564 19.5561184,4.66401339 19.8019771,5.00306138 C20.068004,5.37081708 20.0641625,5.61978224 19.8014969,5.99100267 C18.1371482,8.34454015 15.9143352,9.86406908 13.1873195,10.5619635 C9.30784087,11.5543594 5.71791854,10.869334 2.47997763,8.41680439 C1.60362553,7.75355723 0.8588463,6.94528663 0.224031249,6.03208439 C-0.0631241226,5.61928728 -0.0794506822,5.39408023 0.205303724,4.97930327 C1.37361312,3.27812381 2.90830972,2.0357728 4.73688439,1.16860189 C6.40411424,0.378149871 8.15921939,0.00494960564 10.5246498,0 C13.5369,0.0643448733 16.5947686,1.2977866 19.0312675,4.01215033 Z" id="Fill-1"></path>
                                </g>
                            </g>
                            <path d="M0.5,0.5 L18.5,21.5" id="Line" stroke="#9FB3C3" stroke-width="2" stroke-linecap="round"></path>
                        </g>
                    </g>
                </g>
            </g>
        </g>
    </g>
</svg>