<?xml version="1.0" encoding="UTF-8"?>
<svg width="12px" height="23px" viewBox="0 0 12 23" version="1.1" xmlns="http://www.w3.org/2000/svg" xmlns:xlink="http://www.w3.org/1999/xlink">
    <!-- Generator: Sketch 48.2 (47327) - http://www.bohemiancoding.com/sketch -->
    <title>Fill 1</title>
    <desc>Created with Sketch.</desc>
    <defs></defs>
    <g id="Мой-профиль-(Информация-о-магазине-)" stroke="none" stroke-width="1" fill="none" fill-rule="evenodd" transform="translate(-143.000000, -1494.000000)">
        <g id="Group-95" transform="translate(-1.000000, 1468.000000)" fill="#4C4C4C">
            <path d="M147.545172,49 C147.536189,48.8345465 147.519378,48.669093 147.519295,48.5036395 C147.51773,45.3689324 147.518059,42.234142 147.518059,39.099435 L147.518059,38.5464522 L144,38.5464522 L144,34.4140279 L147.518059,34.4140279 C147.518059,33.6960913 147.519625,33.034527 147.51773,32.3731293 C147.514763,31.3484333 147.477761,30.3230712 147.796026,29.3259369 C148.42753,27.347406 150.129862,26.0349358 152.20658,26.0027943 C153.31647,25.9856411 154.427679,26.0518392 155.538311,26.0821487 C155.722496,26.0871448 155.897781,26.094972 155.896545,26.3635946 C155.891106,27.512693 155.894238,28.6617913 155.894238,29.8756722 C155.650553,29.8756722 155.43703,29.8700933 155.223837,29.8767547 C154.470615,29.9002363 153.714426,29.8936581 152.965406,29.9641861 C152.271848,30.0294682 151.81085,30.4826127 151.777391,31.1830631 C151.727451,32.2313239 151.764453,33.2837481 151.764453,34.3957923 L155.726205,34.3957923 C155.631187,35.1844235 155.547706,35.9086053 155.455737,36.6316213 C155.391128,37.139223 155.2821,37.643494 155.255153,38.1526778 C155.236116,38.5110633 155.069402,38.5437043 154.785583,38.539874 C153.907181,38.52805 153.028532,38.5355441 152.149965,38.5356273 L151.692757,38.5356273 L151.692757,39.057801 C151.692757,42.2064138 151.693087,45.3550266 151.691521,48.5036395 C151.691438,48.669093 151.674627,48.8345465 151.665644,49 L147.545172,49 Z" id="Fill-1"></path>
        </g>
    </g>
</svg>