<?xml version="1.0" encoding="UTF-8"?>
<svg width="24px" height="16px" viewBox="0 0 24 16" version="1.1" xmlns="http://www.w3.org/2000/svg" xmlns:xlink="http://www.w3.org/1999/xlink">
    <!-- Generator: Sketch 48.2 (47327) - http://www.bohemiancoding.com/sketch -->
    <title>Group 20</title>
    <desc>Created with Sketch.</desc>
    <defs></defs>
    <g id="Artboard" stroke="none" stroke-width="1" fill="none" fill-rule="evenodd" transform="translate(-1722.000000, -250.000000)">
        <g id="Group-20" transform="translate(1723.000000, 251.000000)" stroke="#A6CE39" stroke-width="2">
            <path d="M2.9677765e-05,10.0001958 C0.0661858496,9.99928594 0.000158186258,9.88311541 2.9677765e-05,9.25019584 C3.97606672e-06,7.56990326 -2.1725632e-05,6.41796373 2.9677765e-05,4.75019584 C0.000183887956,4.13525597 0.0735365354,4.00113635 2.9677765e-05,4.00019584 C1.77611985,3.99995787 3.22639402,3.99991255 5.00002968,4.00019584 C4.92118972,4.00118168 4.99973411,4.14128433 5.00002968,4.75019584 C5.00009393,6.42421872 5.00014534,7.59882124 5.00002968,9.25019584 C4.999657,9.85913796 4.92322015,9.99806213 5.00002968,10.0001958 C3.9660375,10.001235 3.03949745,9.9997392 2.00002968,10.0001958 C1.57491187,9.99982985 1.05120344,10.0003738 2.9677765e-05,10.0001958 Z" id="Fill-1" fill="#FFFFFF"></path>
            <path d="M5.00004155,12.0003264 C5.09266019,11.9988099 5.00022146,11.8051924 5.00004155,11.0912355 C5.00000557,7.94983876 4.99996958,6.02993955 5.00004155,2.9094173 C5.00025744,2.22542662 5.10295115,2.00189392 5.00004155,2.00032639 C7.48656779,1.99992979 9.51695163,1.99985425 12.0000415,2.00032639 C11.8896656,2.00196946 11.9996278,2.23547388 12.0000415,2.9094173 C12.0001315,6.04036453 12.0002035,7.9980354 12.0000415,11.0912355 C11.9995198,11.7652299 11.8925082,11.9967702 12.0000415,12.0003264 C10.5524525,12.0020583 9.25529644,11.9995653 8.00004155,12.0003264 C7.20487662,11.9997164 6.47168482,12.0006229 5.00004155,12.0003264 Z" id="Fill-1" fill="#FFFFFF"></path>
            <path d="M13,14 C12.1323123,13.9978769 12.000257,13.7268123 12,13 C11.9999486,8.32931732 11.9998972,5.64145842 12,1 C12.0003084,0.315140312 12.1470137,0.00219453359 13,-6.36426675e-17 C15.5521803,-0.000555243438 18.4527287,-0.000661004093 21,-6.36426675e-17 C21.8423201,0.00230029424 21.9994089,0.329206479 22,1 C22.0001285,5.65605339 22.0002313,8.39679261 22,13 C21.9992547,13.670865 21.8463809,13.9950214 21,14 C19.9320156,14.0024246 18.0789356,13.9989345 17,14 C15.1497644,13.999146 14.1023475,14.0004152 13,14 Z" id="Fill-1" fill="#FFFFFF"></path>
            <path d="M15,4 L19,4" id="Line"></path>
            <path d="M8,7 L12,7" id="Line"></path>
            <path d="M3,7 L4,7" id="Line"></path>
            <path d="M15,7 L19,7" id="Line"></path>
            <path d="M15,10 L19,10" id="Line"></path>
        </g>
    </g>
</svg>