<?xml version="1.0" encoding="UTF-8"?>
<svg width="29px" height="18px" viewBox="0 0 29 18" version="1.1" xmlns="http://www.w3.org/2000/svg" xmlns:xlink="http://www.w3.org/1999/xlink">
    <!-- Generator: Sketch 48.2 (47327) - http://www.bohemiancoding.com/sketch -->
    <title>Group 26</title>
    <desc>Created with Sketch.</desc>
    <defs></defs>
    <g id="Artboard" stroke="none" stroke-width="1" fill="none" fill-rule="evenodd" transform="translate(-1968.000000, -249.000000)">
        <g id="Group-26" transform="translate(1969.000000, 249.000000)" stroke="#ED1651" stroke-width="2">
            <path d="M14,11.0369864 L14,0" id="Line"></path>
            <polyline id="Page-1" stroke-linecap="round" points="18 9 13.9967342 13 10 9"></polyline>
            <path d="M18,3 C20.6338383,3.00027322 22.6857777,3.00082642 25.3311296,3.00167544 C26.5742642,3.00209849 26.9984039,3.32900938 26.9986815,4.26807178 C27.000347,8.65593309 27.0006246,11.3967118 26.9984039,15.7844674 C26.9979876,16.6708602 26.5852286,16.9950213 25.4170401,16.9967135 C21.4164422,17.0024246 16.413126,16.9989345 12.4125281,16.9990403 C8.50436383,16.999146 5.67633834,17.0004152 1.76817405,16.9985114 C0.357243328,16.9978769 0.00069394586,16.7268084 0.000555156688,15.6642158 C-0.000138789171,11.3292356 -0.000277578344,8.64133791 0.000693945858,4.30635769 C0.00083273503,3.31494301 0.396937031,3.00199272 1.68226355,3.00156968 C4.30215534,3.00079889 7.39142564,3.00026794 10,3" id="Fill-1"></path>
        </g>
    </g>
</svg>