<?xml version="1.0" encoding="UTF-8"?>
<svg width="16px" height="20px" viewBox="0 0 16 20" version="1.1" xmlns="http://www.w3.org/2000/svg" xmlns:xlink="http://www.w3.org/1999/xlink">
    <!-- Generator: Sketch 48.2 (47327) - http://www.bohemiancoding.com/sketch -->
    <title>Group 6</title>
    <desc>Created with Sketch.</desc>
    <defs></defs>
    <g id="Artboard" stroke="none" stroke-width="1" fill="none" fill-rule="evenodd" transform="translate(-2662.000000, -243.000000)">
        <g id="Group-6" transform="translate(2662.000000, 243.000000)" stroke="#9FB3C3" stroke-width="2">
            <path d="M15,5.97290863 L9.92583539,1 L1.99252956,1 C1.44817345,1 1,1.44671095 1,1.99079514 L1,18.0092049 C1,18.5520556 1.44760701,19 1.99406028,19 L14.0059397,19 C14.5522814,19 15,18.5492387 15,17.9911759 L15,5.97290863 Z" id="Rectangle-105"></path>
            <path d="M13.4450172,8 L9.02228067,2.76112407 L9.05743812,7.12435544 C9.05743812,7.60863202 9.44618338,8 9.92138117,8 L13.4450172,8 Z" id="Rectangle-105"></path>
            <path d="M3,7 L7,7" id="Line"></path>
            <path d="M3,11 L13,11" id="Line"></path>
            <path d="M3,15 L13,15" id="Line"></path>
        </g>
    </g>
</svg>