<?xml version="1.0" encoding="UTF-8"?>
<svg width="35px" height="27px" viewBox="0 0 35 27" version="1.1" xmlns="http://www.w3.org/2000/svg" xmlns:xlink="http://www.w3.org/1999/xlink">
    <!-- Generator: Sketch 48.2 (47327) - http://www.bohemiancoding.com/sketch -->
    <title>Group 80</title>
    <desc>Created with Sketch.</desc>
    <defs>
        <path d="M12.114223,10.3286655 C11.4988546,11.2517181 10.2089071,11.5684948 9.24485405,11.0426477 L1.75514595,6.95735234 C0.785805608,6.42862124 0.498515069,5.2522274 1.114223,4.32866549 L2.885777,1.67133451 C3.50114537,0.748281946 4.79109287,0.431505203 5.75514595,0.957352336 L13.244854,5.04264766 C14.2141944,5.57137876 14.5014849,6.7477726 13.885777,7.67133451 L12.114223,10.3286655 Z" id="path-1"></path>
        <path d="M11.8654925,10.0544434 C11.2527075,10.9675642 9.96157159,11.287484 8.9869727,10.7718153 L1.95615238,7.05174713 C0.97917485,6.53481983 0.688064639,5.36936907 1.30256556,4.45366773 L2.96412731,1.97768393 C3.58013881,1.0597316 4.8865287,0.717073593 5.87663344,1.20965066 L13.019314,4.76313395 C14.0118352,5.25691322 14.3185374,6.39912206 13.7068871,7.31055195 L11.8654925,10.0544434 Z" id="path-2"></path>
    </defs>
    <g id="Artboard" stroke="none" stroke-width="1" fill="none" fill-rule="evenodd" transform="translate(-628.000000, -961.000000)">
        <g id="menu" transform="translate(592.000000, 835.000000)">
            <g id="Group-80" transform="translate(38.000000, 126.000000)">
                <g id="Group-78" transform="translate(0.000000, 6.000000)">
                    <path d="M5,13.0081158 C5,14.1082031 5.76807871,15.4608472 6.71906129,16.0314368 L13.2809387,19.9685632 C14.23035,20.53821 15,20.1066027 15,19.0081158 L15,7.99188419 C15,6.89179693 14.2319213,5.53915277 13.2809387,4.96856323 L6.71906129,1.03143677 C5.76964995,0.461789972 5,0.893397331 5,1.99188419 L5,13.0081158 Z" id="Fill-2" fill="#d3dde5"></path>
                    <g id="Fill-3">
                        <use fill="#d3dde5" fill-rule="evenodd" xlink:href="#path-1"></use>
                        <path stroke="#474747" stroke-width="2" d="M12.9462733,10.8833657 C12.0450315,12.2352284 10.1870647,12.6956684 8.76600192,11.9205432 L1.27629382,7.83524791 C-0.209761107,7.02467249 -0.658527883,5.18501619 0.282172709,3.7739653 L2.0537267,1.11663431 C2.95496848,-0.235228364 4.81293528,-0.695668402 6.23399808,0.0794567636 L13.7237062,4.16475209 C15.2097611,4.97532751 15.6585279,6.81498381 14.7178273,8.2260347 L12.9462733,10.8833657 Z"></path>
                    </g>
                </g>
                <g id="Group-78" transform="translate(24.500000, 16.500000) scale(-1, 1) translate(-24.500000, -16.500000) translate(17.000000, 6.000000)">
                    <path d="M5,13.3198388 C5,14.4251034 5.78468323,15.7667113 6.74186707,16.3102867 L13.2581329,20.0108106 C14.2201396,20.5571248 15,20.1109573 15,19.0056483 L15,8.43161438 C15,7.33016435 14.2319213,5.97985628 13.2809387,5.41352693 L6.71906129,1.50579625 C5.76964995,0.940402605 5,1.37689121 5,2.48331903 L5,13.3198388 Z" id="Fill-2" fill="#d3dde5"></path>
                    <g id="Fill-3">
                        <use fill="#d3dde5" fill-rule="evenodd" xlink:href="#path-2"></use>
                        <path stroke="#474747" stroke-width="2" d="M12.6958443,10.611683 C11.7976438,11.9501059 9.94618745,12.4106955 8.51929424,11.6557139 L1.48847391,7.93564579 C-0.0125260506,7.14145367 -0.473374911,5.30550146 0.472207177,3.89643802 L2.13376892,1.42045422 C3.02960512,0.0855198359 4.88192786,-0.4021335 6.32205547,0.314329925 L13.464736,3.86781321 C14.9952231,4.62923046 15.4866897,6.45299961 14.5372388,7.8677916 L12.6958443,10.611683 Z"></path>
                    </g>
                </g>
                <path d="M14.3392854,0.395415354 C15.3184845,-0.113616853 16.9093978,-0.122503525 17.8963318,0.377411278 L24.7062782,3.82687478 C25.6915816,4.32596361 25.6845881,5.1352899 24.7107867,5.62444455 L17.7795411,9.10611049 C16.7967277,9.59979204 15.2153168,9.58651549 14.2352199,9.07005882 L7.76478013,5.66049622 C6.79011898,5.14690389 6.79349382,4.31806088 7.77299679,3.8088707 L14.3392854,0.395415354 Z" id="Rectangle-27" fill="#d3dde5"></path>
            </g>
        </g>
    </g>
</svg>