<?xml version="1.0" encoding="UTF-8"?>
<svg width="26px" height="26px" viewBox="0 0 26 26" version="1.1" xmlns="http://www.w3.org/2000/svg" xmlns:xlink="http://www.w3.org/1999/xlink">
    <!-- Generator: Sketch 48.2 (47327) - http://www.bohemiancoding.com/sketch -->
    <title>Group 91</title>
    <desc>Created with Sketch.</desc>
    <defs></defs>
    <g id="Мой-профиль-(Информация-о-магазине-)" stroke="none" stroke-width="1" fill="none" fill-rule="evenodd" transform="translate(-41.000000, -339.000000)">
        <g id="Group-91" transform="translate(41.000000, 339.000000)">
            <path d="M3.00793008,0 C1.34669617,0 0,1.34756687 0,2.99147251 L0,12.8140137 C0,14.4661584 0,17.146611 0,18.806745 L0,17.1946403 C0,18.8521898 0,21.5337187 0,23.1953634 L0,24.2210953 C0,25.8776537 1.00374542,26.316589 2.23516695,25.2075739 L5.56483305,22.2088849 C6.79928167,21.0971435 9.13828945,20.1958991 10.8053598,20.1958991 L22.9946402,20.1958991 C24.6544546,20.1958991 26,18.8551492 26,17.1941765 L26,3.00172263 C26,1.343917 24.6568766,0 22.9920699,0 L3.00793008,0 Z" id="Fill-1" fill="#D3D8E2"></path>
            <path d="M4.2970892,7 L22.2013679,7" id="Stroke-2" stroke="#474747" stroke-width="2" stroke-linecap="round"></path>
            <path d="M4,13 L8.49331052,13 M12.7381059,13 L21,13" id="Stroke-2" stroke="#474747" stroke-width="2" stroke-linecap="round"></path>
        </g>
    </g>
</svg>