<?xml version="1.0" encoding="UTF-8"?>
<svg width="28px" height="16px" viewBox="0 0 28 16" version="1.1" xmlns="http://www.w3.org/2000/svg" xmlns:xlink="http://www.w3.org/1999/xlink">
    <!-- Generator: Sketch 48.2 (47327) - http://www.bohemiancoding.com/sketch -->
    <title>Group 24</title>
    <desc>Created with Sketch.</desc>
    <defs></defs>
    <g id="Artboard" stroke="none" stroke-width="1" fill="none" fill-rule="evenodd" transform="translate(-1895.000000, -250.000000)">
        <g id="Group-24" transform="translate(1896.000000, 251.000000)" stroke="#687F91" stroke-width="2">
            <path d="M1.70268612,13.9985115 C0.344012094,13.9978769 0.000668244161,13.7268123 0.000534595329,12.664235 C-0.000133648831,8.32931732 -0.000267297665,5.64145842 0.00066824416,1.30654069 C0.000801892992,0.315140312 0.38223566,0.00219453359 1.61995749,0.00177149097 C9.23566889,-0.000555243438 16.7770946,-0.000661004093 24.3929396,0.00187725163 C25.5900322,0.00230029424 25.998463,0.329206479 25.9987303,1.26825533 C26.0003341,5.65605339 26.0006014,8.39679261 25.998463,12.7844849 C25.9980621,13.670865 25.6005905,13.9950214 24.4756682,13.9967135 C20.6232407,14.0024246 15.8052324,13.9989345 11.9528049,13.9990403 C8.1893874,13.999146 5.46610358,14.0004152 1.70268612,13.9985115 Z" id="Fill-1"></path>
            <path d="M5,0 L5,10" id="Line"></path>
            <path d="M10,0 L10,7" id="Line"></path>
            <path d="M16,0 L16,7" id="Line"></path>
            <path d="M21,0 L21,10" id="Line"></path>
        </g>
    </g>
</svg>