<?xml version="1.0" encoding="UTF-8"?>
<svg width="22px" height="23px" viewBox="0 0 22 23" version="1.1" xmlns="http://www.w3.org/2000/svg" xmlns:xlink="http://www.w3.org/1999/xlink">
    <!-- Generator: Sketch 48.2 (47327) - http://www.bohemiancoding.com/sketch -->
    <title>Group 5</title>
    <desc>Created with Sketch.</desc>
    <defs></defs>
    <g id="Мой-профиль-(Информация-о-магазине-)" stroke="none" stroke-width="1" fill="none" fill-rule="evenodd" transform="translate(-238.000000, -1494.000000)">
        <g id="Group-95" transform="translate(-1.000000, 1468.000000)" fill="#687f90">
            <g id="Group-5" transform="translate(239.000000, 26.000000)">
                <path d="M20.3406781,11.5019799 L20.3413292,11.5019799 C20.3413292,9.85210491 20.3462421,8.20216973 20.3370971,6.55232483 C20.3353214,6.23082956 20.306969,5.90361694 20.2422735,5.58937366 C20.0551122,4.6799248 19.6503657,3.88082067 19.0105429,3.20816011 C18.0524218,2.20088448 16.8852092,1.69222143 15.5095859,1.69041595 C12.461468,1.68635363 9.41335006,1.68647399 6.36526171,1.69336489 C6.06371429,1.69405699 5.75657333,1.7261343 5.46183285,1.79028892 C4.33407094,2.0358037 3.40175698,2.622343 2.68403919,3.53856241 C1.98375309,4.43251426 1.64186715,5.4659994 1.64006183,6.60666969 C1.63491223,9.84623711 1.63440911,13.0858346 1.64518183,16.325402 C1.64651363,16.7261277 1.69244567,17.1343159 1.77747322,17.5256531 C2.0151242,18.619411 2.58033695,19.520645 3.43653156,20.2235774 C4.28417311,20.9194985 5.26037703,21.2981973 6.35046401,21.3026809 C9.42317573,21.3153493 12.4959762,21.3075858 15.5687471,21.3085788 C16.0624574,21.3087593 16.542613,21.2266402 17.011404,21.0719409 C17.9731358,20.7545682 18.7557858,20.1817204 19.3676705,19.3647721 C19.9825443,18.5438819 20.3199614,17.6130081 20.3342559,16.5869555 C20.3579026,14.8922746 20.3406781,13.1969918 20.3406781,11.5019799 M21.996481,16.3276589 C21.9902659,17.7822414 21.6026255,19.1209124 20.7456614,20.2959168 C19.7976027,21.5958603 18.5504234,22.4481357 16.9916935,22.8171752 C16.4772664,22.9389847 15.9573642,22.9939916 15.4304479,22.9939916 C12.4414615,22.9940518 9.45247516,22.9956767 6.4635184,22.9937809 C5.63629767,22.9932694 4.83766609,22.8393525 4.06688376,22.5265235 C3.1442475,22.1520977 2.34975927,21.5945663 1.68158416,20.8489043 C0.961972268,20.0458282 0.470037704,19.1174519 0.200571684,18.0664235 C0.0624500011,17.5277595 -0.000558582973,16.9801884 3.72942652e-06,16.4238908 C0.00346638999,13.079034 0.00459101479,9.73414708 0.00977020794,6.38926017 C0.0110428097,5.56972406 0.191633876,4.78527438 0.501024077,4.03178864 C0.845396029,3.19308438 1.34514377,2.45738259 1.99023448,1.83121307 C2.67507179,1.1665267 3.46976719,0.677573432 4.36831281,0.363239883 C5.11213373,0.103070644 5.87862472,0.0047925119 6.66023895,0.00449159906 C9.62454276,0.00334813028 12.5889353,-0.00724400157 15.5531504,0.00876456134 C17.0414729,0.0167989341 18.3839198,0.492271307 19.5538847,1.44282487 C20.6704891,2.35001689 21.4122384,3.50970487 21.7745451,4.91102586 C21.8793424,5.31638554 21.9561721,5.74187629 21.9608777,6.15915212 C21.9810618,7.9437157 21.9694604,9.72864037 21.9694604,11.5134146 C21.9980495,13.1181827 22.0033471,14.7229509 21.996481,16.3276589 Z" id="Fill-1"></path>
                <path d="M17.2669215,6.55453635 C16.5972507,6.58416761 15.9704365,5.9637021 16.001079,5.21510582 C16.0276862,4.5648191 16.6073393,3.98776935 17.2876637,4.00019712 C17.9608588,4.01254347 18.5724997,4.56774967 18.5369877,5.35862205 C18.5088471,5.98481301 17.9529493,6.57912053 17.2669215,6.55453635" id="Fill-6"></path>
                <path d="M7.6646304,11.4927504 C7.6646304,11.5975612 7.66056748,11.7025724 7.66577488,11.807097 C7.67095368,11.9110776 7.67799226,12.0159743 7.69704794,12.1180654 C7.86488671,13.0174459 8.26797441,13.785677 8.96619626,14.3892625 C9.85786472,15.1600988 10.8877584,15.4615337 12.0538172,15.305706 C12.7984765,15.2061915 13.4517487,14.8997179 14.0086838,14.40289 C14.882527,13.6234363 15.3255572,12.6320421 15.3528532,11.4672133 C15.3616371,11.0920586 15.3184042,10.7075709 15.2397494,10.3400603 C15.0216964,9.32143983 14.4413565,8.56451724 13.5043092,8.09743483 C13.0446267,7.86831681 12.5524122,7.74959227 12.0424296,7.68514835 C11.6006296,7.6293504 11.1603462,7.60836533 10.7247551,7.69542617 C9.87082602,7.86608374 9.1549791,8.28051739 8.59074787,8.95175333 C7.97269722,9.68700374 7.65959466,10.5324472 7.6646304,11.4927504 M16.0269767,14.5721981 C15.1953935,15.7977152 14.0506332,16.5825153 12.6044734,16.8790808 C11.0838301,17.1909257 9.65713723,16.8983696 8.37805756,16.0156354 C7.17088923,15.1825049 6.42464661,14.0219793 6.11547658,12.5884302 C5.99948705,12.0506733 5.96956911,11.501511 6.03165221,10.9534865 C6.1531109,9.88165689 6.52931877,8.9098203 7.20270242,8.06024554 C8.03783244,7.00664822 9.11596106,6.34378485 10.4328917,6.08614914 C10.9852498,5.97808301 11.5452973,5.9805212 12.1085396,6.04472695 C12.7152374,6.11391744 13.3044989,6.23991783 13.8682286,6.47173579 C14.9791722,6.92857186 15.8314948,7.68056473 16.3907842,8.74743665 C16.6931855,9.32431309 16.87735,9.94239498 16.9413825,10.5931216 C16.9668601,10.8521931 16.9877892,11.1116981 17,11.2491851 C16.9857044,12.5339773 16.6814078,13.6077574 16.0269767,14.5721981 Z" id="Fill-4"></path>
            </g>
        </g>
    </g>
</svg>