<?xml version="1.0" encoding="UTF-8"?>
<svg width="15px" height="16px" viewBox="0 0 15 16" version="1.1" xmlns="http://www.w3.org/2000/svg" xmlns:xlink="http://www.w3.org/1999/xlink">
    <!-- Generator: Sketch 48.2 (47327) - http://www.bohemiancoding.com/sketch -->
    <title>Group 12</title>
    <desc>Created with Sketch.</desc>
    <defs></defs>
    <g id="Мой-профиль-(Доступы)" stroke="none" stroke-width="1" fill="none" fill-rule="evenodd" transform="translate(-651.000000, -317.000000)">
        <g id="Group-19" transform="translate(328.000000, 316.000000)">
            <g id="Group-16" transform="translate(247.000000, 0.000000)">
                <g id="Group-12" transform="translate(76.000000, 2.000000)">
                    <path d="M1,5.99715203 L1,12.002848 C1,13.1058245 1.89490403,14 2.99942248,14 L12.0005775,14 C13.1041148,14 14,13.1050946 14,12.002848 L14,5.99715203 C14,4.89417553 13.105096,4 12.0005775,4 L2.99942248,4 C1.89588521,4 1,4.89490544 1,5.99715203 Z" id="Rectangle-118" stroke="#687F91" stroke-width="2"></path>
                    <polygon id="Triangle" fill="#687F91" points="7.5 7 9 12 6 12"></polygon>
                    <circle id="Oval-2" fill="#687F91" cx="7.5" cy="7.5" r="1.5"></circle>
                    <path d="M5,5 L5,3.18181818 C5,1.42454852 6.1220976,0 7.5,0 C8.88071187,0 10,1.42812421 10,3.18181818 L10,5" id="Rectangle-119" stroke="#687F91" stroke-width="2"></path>
                </g>
            </g>
        </g>
    </g>
</svg>