<?xml version="1.0" encoding="UTF-8"?>
<svg width="47px" height="39px" viewBox="0 0 47 39" version="1.1" xmlns="http://www.w3.org/2000/svg" xmlns:xlink="http://www.w3.org/1999/xlink">
    <!-- Generator: Sketch 48.2 (47327) - http://www.bohemiancoding.com/sketch -->
    <title>Group 124</title>
    <desc>Created with Sketch.</desc>
    <defs>
        <path d="M5,18.0502615 C5,19.1494663 5.79344249,20.4714635 6.75804868,20.9953374 L19.2419513,27.7752974 C20.2128948,28.3026131 21,27.836227 21,26.724465 L21,9.619257 C21,8.51158258 20.2065575,7.20053545 19.2265873,6.69032167 L6.7734127,0.206674259 C5.79398391,-0.303257638 5,0.17527126 5,1.27364723 L5,18.0502615 Z" id="path-1"></path>
        <path d="M15.1726335,13.5880739 C14.5509111,14.4955292 13.2591773,14.8052045 12.2855197,14.278701 L0.961824344,8.15543335 C-0.0109621786,7.62940082 -0.291863311,6.46192046 0.331740798,5.551695 L3.46572703,0.977263871 C4.09052802,0.0652914231 5.38654251,-0.271485824 6.38607399,0.238111608 L17.8875843,6.10199907 C18.8756464,6.605749 19.1670994,7.75781975 18.5509011,8.65721226 L15.1726335,13.5880739 Z" id="path-2"></path>
        <path d="M5,18.0502615 C5,19.1494663 5.79344249,20.4714635 6.75804868,20.9953374 L19.2419513,27.7752974 C20.2128948,28.3026131 21,27.836227 21,26.724465 L21,9.619257 C21,8.51158258 20.2065575,7.20053545 19.2265873,6.69032167 L6.7734127,0.206674259 C5.79398391,-0.303257638 5,0.17527126 5,1.27364723 L5,18.0502615 Z" id="path-3"></path>
        <path d="M15.1726335,13.5880739 C14.5509111,14.4955292 13.2591773,14.8052045 12.2855197,14.278701 L0.961824344,8.15543335 C-0.0109621786,7.62940082 -0.291863311,6.46192046 0.331740798,5.551695 L3.46572703,0.977263871 C4.09052802,0.0652914231 5.38654251,-0.271485824 6.38607399,0.238111608 L17.8875843,6.10199907 C18.8756464,6.605749 19.1670994,7.75781975 18.5509011,8.65721226 L15.1726335,13.5880739 Z" id="path-4"></path>
    </defs>
    <g id="Artboard" stroke="none" stroke-width="1" fill="none" fill-rule="evenodd" transform="translate(-783.000000, -868.000000)">
        <g id="menu" transform="translate(592.000000, 835.000000)">
            <g id="Group-127">
                <g id="Group-124" transform="translate(193.000000, 33.000000)">
                    <g id="Group-123" transform="translate(0.000000, 9.000000)">
                        <g id="Fill-2">
                            <use fill="#ed1651" fill-rule="evenodd" xlink:href="#path-1"></use>
                            <path stroke="#E7EAEF" stroke-width="2" d="M4,18.0502615 L4,1.27364723 C4,-0.577490378 5.59200461,-1.53583319 7.23521372,-0.680309296 L19.6883883,5.80333811 C20.9992554,6.48583077 22,8.13888056 22,9.619257 L22,26.724465 C22,28.5925628 20.4036571,29.5441756 18.7646972,28.6540628 L6.28079457,21.8741027 C4.99261169,21.1744955 4,19.5144676 4,18.0502615 Z"></path>
                        </g>
                        <g id="Fill-3">
                            <use fill="#ed1651" fill-rule="evenodd" xlink:href="#path-2"></use>
                            <path stroke="#E7EAEF" stroke-width="2" d="M15.9975881,14.1532728 C15.0858954,15.4839639 13.2324948,15.9276175 11.8098613,15.1583311 L0.486165972,9.03506345 C-1.00831781,8.22692408 -1.45275816,6.3870668 -0.493220686,4.98650605 L2.64076554,0.41207492 C3.55195607,-0.917917624 5.39685148,-1.38869733 6.84028433,-0.652782866 L18.3417947,5.2111046 C19.8632895,5.98681792 20.3357551,7.82135852 19.3758557,9.22241117 L15.9975881,14.1532728 Z"></path>
                        </g>
                    </g>
                    <g id="Group-123" transform="translate(32.500000, 23.000000) scale(-1, 1) translate(-32.500000, -23.000000) translate(22.000000, 9.000000)">
                        <g id="Fill-2">
                            <use fill="#ed1651" fill-rule="evenodd" xlink:href="#path-3"></use>
                            <path stroke="#E7EAEF" stroke-width="2" d="M4,18.0502615 L4,1.27364723 C4,-0.577490378 5.59200461,-1.53583319 7.23521372,-0.680309296 L19.6883883,5.80333811 C20.9992554,6.48583077 22,8.13888056 22,9.619257 L22,26.724465 C22,28.5925628 20.4036571,29.5441756 18.7646972,28.6540628 L6.28079457,21.8741027 C4.99261169,21.1744955 4,19.5144676 4,18.0502615 Z"></path>
                        </g>
                        <g id="Fill-3">
                            <use fill="#ed1651" fill-rule="evenodd" xlink:href="#path-4"></use>
                            <path stroke="#E7EAEF" stroke-width="2" d="M15.9975881,14.1532728 C15.0858954,15.4839639 13.2324948,15.9276175 11.8098613,15.1583311 L0.486165972,9.03506345 C-1.00831781,8.22692408 -1.45275816,6.3870668 -0.493220686,4.98650605 L2.64076554,0.41207492 C3.55195607,-0.917917624 5.39685148,-1.38869733 6.84028433,-0.652782866 L18.3417947,5.2111046 C19.8632895,5.98681792 20.3357551,7.82135852 19.3758557,9.22241117 L15.9975881,14.1532728 Z"></path>
                        </g>
                    </g>
                    <path d="M20.4726325,0.350370385 C21.4686248,-0.134047434 23.0748771,-0.112740872 24.050919,0.3930995 L34.9758575,6.0550235 C35.9560982,6.56303996 35.9479061,7.39116652 34.9669851,7.89980861 L23.9874341,13.5930925 C23.0022932,14.1039227 21.4049425,14.1206638 20.4087883,13.6250806 L8.74280967,7.82129678 C7.751519,7.32813312 7.75044381,6.53802344 8.75132275,6.05122893 L20.4726325,0.350370385 Z" id="Rectangle-27" fill="#ed1651"></path>
                </g>
            </g>
        </g>
    </g>
</svg>