<?xml version="1.0" encoding="UTF-8"?>
<svg width="31px" height="31px" viewBox="0 0 31 31" version="1.1" xmlns="http://www.w3.org/2000/svg" xmlns:xlink="http://www.w3.org/1999/xlink">
    <!-- Generator: Sketch 48.2 (47327) - http://www.bohemiancoding.com/sketch -->
    <title>Group 114</title>
    <desc>Created with Sketch.</desc>
    <defs></defs>
    <g id="Мой-профиль-(Адрес-авто-возврата)-(m)" stroke="none" stroke-width="1" fill="none" fill-rule="evenodd" transform="translate(-10.000000, -9.000000)">
        <g id="Group-114" transform="translate(10.000000, 9.000000)">
            <path d="M13,25 C14.3889783,23.6585922 16.605462,23.6585922 18,25 C19.3425656,26.3892847 19.3425656,28.6064406 18,30 C16.605462,31.3422628 14.3889783,31.3422628 13,30 C11.6598578,28.6064406 11.6598578,26.3892847 13,25" id="Fill-33" fill="#ED1651"></path>
            <path d="M19,19 C17.6588286,20.3892147 17.6588286,22.6050831 19,24 C20.3916204,25.3409906 22.6090922,25.3409906 24,24 C25.341884,22.6050831 25.341884,20.3892147 24,19 C22.6090922,17.6584392 20.3916204,17.6584392 19,19" id="Fill-35" fill="#ED1651"></path>
            <path d="M25,13 C23.6579247,14.3885824 23.6579247,16.6067146 25,18 C26.3928164,19.3430381 28.6083238,19.3430381 30,18 C31.340935,16.6067146 31.340935,14.3885824 30,13 C28.6083238,11.6579596 26.3928164,11.6579596 25,13" id="Fill-37" fill="#ED1651"></path>
            <path d="M7,19 C5.65724403,20.3892147 5.65724403,22.607364 7,24 C8.39302359,25.3409906 10.6085435,25.3409906 12,24 C13.3414738,22.607364 13.3414738,20.3892147 12,19 C10.6085435,17.6584392 8.39302359,17.6584392 7,19" id="Fill-39" fill="#ED1651"></path>
            <path d="M1,13 C-0.341942969,14.3931429 -0.341942969,16.6067146 1,18 C2.39075126,19.3430381 4.6076815,19.3430381 6,18 C7.34208545,16.6067146 7.34208545,14.3931429 6,13 C4.6076815,11.6579596 2.39075126,11.6579596 1,13" id="Fill-41" fill="#ED1651"></path>
            <path d="M13,13 C11.6599133,14.3885824 11.6599133,16.6067146 13,18 C14.3885891,19.3430381 16.6047118,19.3430381 18,18 C19.3413696,16.6067146 19.3413696,14.3885824 18,13 C16.6047118,11.6579596 14.3885891,11.6579596 13,13" id="Fill-43" fill="#ED1651"></path>
            <path d="M7,7 C5.65724403,8.39370928 5.65724403,10.6077158 7,12 C8.39302359,13.341022 10.6085435,13.341022 12,12 C13.3414738,10.6077158 13.3414738,8.39370928 12,7 C10.6085435,5.65812296 8.39302359,5.65812296 7,7" id="Fill-45" fill="#ED1651"></path>
            <path d="M19,7 C17.6588286,8.39370928 17.6588286,10.6077158 19,12 C20.3916204,13.341022 22.6090922,13.341022 24,12 C25.341884,10.6077158 25.341884,8.39370928 24,7 C22.6090922,5.65812296 20.3916204,5.65812296 19,7" id="Fill-47" fill="#ED1651"></path>
            <path d="M13,1 C14.3885891,-0.342012581 16.6047118,-0.342012581 18,1 C19.3413696,2.39408807 19.3413696,4.60747949 18,6 C16.6047118,7.34187008 14.3885891,7.34187008 13,6 C11.6599133,4.60747949 11.6599133,2.39408807 13,1" id="Fill-49" fill="#A6CE39"></path>
        </g>
    </g>
</svg>