<?xml version="1.0" encoding="UTF-8"?>
<svg width="26px" height="16px" viewBox="0 0 26 16" version="1.1" xmlns="http://www.w3.org/2000/svg" xmlns:xlink="http://www.w3.org/1999/xlink">
    <!-- Generator: Sketch 48.2 (47327) - http://www.bohemiancoding.com/sketch -->
    <title>Fill 1</title>
    <desc>Created with Sketch.</desc>
    <defs></defs>
    <g id="Мой-профиль-(Информация-о-магазине-)" stroke="none" stroke-width="1" fill="none" fill-rule="evenodd" transform="translate(-36.000000, -1497.000000)">
        <g id="Group-95" transform="translate(-1.000000, 1468.000000)" fill="#687f90">
            <path d="M52.0798549,33.2057756 L52.0790418,33.2057756 C52.0790418,32.3474534 52.0802301,31.4891311 52.0775721,30.630839 C52.0772282,30.5227919 52.0668151,30.4127266 52.043581,30.3071495 C51.9767558,30.0038827 51.7508886,29.8325797 51.4290207,29.8324893 C49.9386659,29.8321278 48.4482798,29.8320977 46.9578938,29.8330616 C46.9021384,29.8330917 46.8450383,29.8389053 46.7908464,29.8513155 C46.4580026,29.9275539 46.1871058,30.3473622 46.4183828,30.7080714 C46.5388683,30.8960318 46.6890608,31.0662504 46.8248063,31.2451742 C47.248835,31.8041153 47.4200101,32.4375177 47.4197912,33.1214646 C47.4195097,34.0902738 47.4229495,35.059083 47.4183215,36.0278622 C47.4161325,36.4827624 47.4018732,36.9376627 47.387176,37.3923822 C47.3795147,37.6294111 47.2601862,37.8054131 47.074658,37.8588493 C46.9018569,37.9086407 46.7389686,37.8666207 46.5879318,37.7805324 C46.2480834,37.5867887 45.9903201,37.3076494 45.7363719,37.0231485 C45.1348827,36.3492925 44.6570999,35.5946797 44.213527,34.8215722 C43.8920657,34.2612756 43.5984664,33.6845023 43.3242236,33.1011926 C43.0360654,32.4883032 42.7849941,31.8592082 42.5191631,31.2366196 C42.3834488,30.9186834 42.2667159,30.5921324 42.1123018,30.2829617 C41.9712403,30.0005693 41.7059097,29.840562 41.3847923,29.8369473 C40.3114304,29.8248685 39.237787,29.824989 38.1644251,29.836857 C37.8414002,29.8404114 37.4882306,30.0755727 37.500301,30.4923085 C37.5141226,30.9692881 37.6463658,31.4167483 37.7839875,31.8653832 C38.0419071,32.7062649 38.3664642,33.5243143 38.7698544,34.3095609 C39.1824381,35.1127301 39.5899561,35.9215019 40.0628294,36.6918683 C40.6030283,37.5718181 41.2005149,38.4202001 41.7975637,39.2662929 C42.1056725,39.7029092 42.4507118,40.1181691 42.8089473,40.5182476 C43.0993257,40.8425094 43.4227571,41.142011 43.7527241,41.4299458 C44.1031732,41.735773 44.4656615,42.0318708 44.8456614,42.302576 C45.8147047,42.9929388 46.8776848,43.5076008 48.0413248,43.8219826 C48.6754917,43.9933157 49.3215102,44.0946757 49.9800056,44.1076281 C50.238488,44.1126886 50.4993783,44.1050377 50.7558594,44.07594 C51.0278195,44.0450952 51.3010929,43.9998823 51.5642972,43.928373 C51.9080232,43.8349651 52.0762588,43.5912492 52.0794796,43.2564146 C52.0886732,42.3040519 52.0928322,41.3515687 52.11419,40.3994169 C52.1216011,40.0680464 52.2791421,39.8356563 52.6807812,39.8248124 C53.1375502,39.8125227 53.5278068,39.9566557 53.8790065,40.2028718 C54.2979694,40.49659 54.7142431,40.7993146 55.0953374,41.1362878 C55.6000129,41.582513 56.0733554,42.0620529 56.5528268,42.5341528 C56.964879,42.9398641 57.3568867,43.3648533 57.7768503,43.7626124 C58.0117547,43.9850924 58.3196134,44.1042244 58.6518318,44.107086 C59.6314446,44.1154899 60.6112763,44.1172069 61.5907952,44.1038328 C61.7779183,44.1013026 61.9806453,44.0489206 62.146817,43.9653325 C62.4637129,43.8058975 62.5867,43.4744366 62.4359759,43.0875816 C62.2900362,42.7130766 62.1160468,42.3338726 61.8751384,42.0116892 C61.4076436,41.38648 60.8985276,40.7883503 60.3798116,40.2009741 C60.0070353,39.7788464 59.5900424,39.3929855 59.1940007,38.9898647 C58.8591243,38.6490359 58.5172433,38.3140507 58.1956256,37.9619262 C58.0247007,37.7748093 57.906029,37.547811 57.9936178,37.2847568 C58.0351764,37.1599017 58.1016889,37.0388119 58.1773011,36.9290779 C58.4966986,36.4655327 58.826728,36.008795 59.1475014,35.5460932 C59.8991518,34.4618269 60.633666,33.3674999 61.2738681,32.2167848 C61.5519885,31.7169427 61.8190078,31.2130643 61.9343649,30.6525568 C61.9651351,30.5030319 61.9689501,30.3279035 61.91751,30.1875356 C61.8183511,29.916951 61.5603064,29.8361039 61.287377,29.8345978 C60.2608271,29.8289349 59.2342147,29.8303205 58.2076335,29.833393 C57.8356389,29.8345075 57.5229646,29.9867735 57.3391563,30.2900403 C57.1316449,30.6324655 56.9807332,31.0065187 56.8010525,31.3648483 C56.2106644,32.5422514 55.5656778,33.6897736 54.7787855,34.7584368 C54.3434681,35.3496385 53.9019591,35.9382496 53.3094445,36.3961922 C53.1301079,36.534813 52.9202824,36.6454204 52.7088309,36.734551 C52.494909,36.824766 52.292182,36.7443707 52.2169137,36.5320116 C52.1422396,36.3212791 52.0893924,36.0927446 52.0857963,35.8711381 C52.0714118,34.9828747 52.0798549,34.0942499 52.0798549,33.2057756" id="Fill-1"></path>
        </g>
    </g>
</svg>