<?xml version="1.0" encoding="UTF-8"?>
<svg width="141px" height="31px" viewBox="0 0 141 31" version="1.1" xmlns="http://www.w3.org/2000/svg" xmlns:xlink="http://www.w3.org/1999/xlink">
    <!-- Generator: Sketch 48.2 (47327) - http://www.bohemiancoding.com/sketch -->
    <title>Group 25</title>
    <desc>Created with Sketch.</desc>
    <defs></defs>
    <g id="Мой-профиль-(Информация-о-магазине-)" stroke="none" stroke-width="1" fill="none" fill-rule="evenodd" transform="translate(-40.000000, -15.000000)">
        <g id="Group-137">
            <g id="Group-25" transform="translate(40.000000, 15.000000)">
                <g id="Page-1">
                    <g id="Group-23" transform="translate(37.000000, 4.000000)" fill="#ED1651">
                        <path d="M103.692308,5.33333333 L103.470439,5.91507 C103.256004,6.49446802 103.10104,6.83590944 102.893467,7.30363741 C102.761947,7.59421341 102.609841,7.93448551 102.400553,8.42618454 L97.9511745,19.6721189 C97.1734911,21.67341 95.6244145,22.8205128 93.7076537,22.8205128 C93.0443355,22.8205128 92.2655085,22.6170512 91.8246306,22.4317139 L91.4237806,22.2586546 L91.6027621,21.8517313 C92.2220497,20.5035054 92.6200406,20.0685184 93.913511,19.9615256 C94.4007068,19.9223534 94.9342205,19.3365241 95.3093383,18.4256239 L95.4980409,17.9602345 L91.471814,8.42267658 C91.2568074,7.91226843 91.0949806,7.51879227 90.9331539,7.12063884 C90.7776172,6.75054908 90.6249396,6.38455195 90.4316625,5.93202514 L90.1794872,5.33333333 L92.1631516,5.33333333 C93.3096628,5.33333333 93.8174443,5.69406853 94.2594658,6.83590944 C94.2594658,6.83590944 96.4730043,12.4410445 96.6399775,12.8520605 C96.7989451,13.2636611 96.9950814,14.2499824 96.9950814,14.2499824 L97.0980101,14.2447205 C97.0980101,14.2447205 97.2403948,13.3659766 97.4130862,12.8520605 C97.5863495,12.3398983 99.5602929,6.84935662 99.5602929,6.84935662 C99.9725795,5.72739415 100.537544,5.33333333 101.706928,5.33333333 L103.692308,5.33333333 Z" id="Fill-1"></path>
                        <path d="M78.0592747,5.33333333 C76.7692818,5.33333333 75.1785644,6.46676033 74.825802,7.91721023 L74.825802,7.05030691 C74.825802,6.28159652 74.3766325,5.47473116 72.9579142,5.47473116 L71.8974359,5.47473116 L71.8974359,18.0512821 L74.9008462,18.0512821 L74.9008462,12.833029 C74.9008462,12.0587076 74.9824636,11.4050232 75.1550104,10.8355042 C75.6047277,9.33567729 76.719435,8.36609222 77.9886127,8.36609222 C78.2981015,8.36609222 78.5550045,8.42220246 78.5550045,8.42220246 L79.0512821,8.54171729 L79.0512821,5.4382595 L78.7105705,5.38551586 C78.6968763,5.38551586 78.3819099,5.33333333 78.0592747,5.33333333" id="Fill-3"></path>
                        <path d="M87.5961691,5.33333333 C86.3073703,5.33333333 84.7200611,6.46676033 84.3662303,7.91721023 L84.3662303,7.05030691 C84.3662303,6.28159652 83.9203815,5.47473116 82.4979377,5.47473116 L81.4358974,5.47473116 L81.4358974,18.0512821 L84.4396255,18.0512821 L84.4396255,12.833029 C84.4396255,12.0587076 84.5234275,11.4050232 84.6926748,10.8355042 C85.1434531,9.33567729 86.2564319,8.36609222 87.5282511,8.36609222 C87.8393593,8.36609222 88.0945995,8.42220246 88.0945995,8.42220246 L88.5897436,8.54171729 L88.5897436,5.4382595 L88.2496059,5.38551586 C88.2337218,5.38551586 87.9215182,5.33333333 87.5961691,5.33333333" id="Fill-5"></path>
                        <path d="M21.409581,5.33333333 C17.5643597,5.33333333 14.6666667,8.22844301 14.6666667,12.0649251 C14.6666667,15.930843 17.5643597,18.8461538 21.409581,18.8461538 C25.2058794,18.8461538 28.1794872,15.8661995 28.1794872,12.0649251 C28.1794872,8.22844301 25.2711098,5.33333333 21.409581,5.33333333 M21.409581,15.9908692 L21.409581,15.9908692 C19.3480745,15.9908692 17.7943532,14.3014781 17.7943532,12.0649251 C17.7943532,9.85492209 19.3480745,8.18573206 21.409581,8.18573206 C23.4845834,8.18573206 25.0484266,9.85492209 25.0484266,12.0649251 C25.0484266,14.3014781 23.4845834,15.9908692 21.409581,15.9908692" id="Fill-7"></path>
                        <path d="M7.0285987,5.12670437 C5.29923008,5.12670437 4.11301049,5.86213531 3.42025824,6.4850541 L3.33261755,6.4850541 C3.33261755,6.4850541 3.42025824,5.76661719 3.42025824,5.03294426 L3.42025824,2.54888709 C3.42025824,1.21163339 2.80007473,0.564102564 1.5278891,0.564102564 L0.358974359,0.564102564 L0.358974359,12.0713992 C0.511926909,16.2501705 2.9960103,18.8461538 6.84829332,18.8461538 C10.3980206,18.8461538 13.0769231,15.8985701 13.0769231,11.9858431 C13.0769231,8.07428813 10.4772879,5.12670437 7.0285987,5.12670437 M6.52005938,15.9683042 L6.52005938,15.9683042 C4.55400507,15.9683042 3.29968251,13.9682836 3.29968251,12.0309652 C3.29968251,9.09217142 5.09659586,8.04616009 6.56750816,8.04616009 C8.2522191,8.04616009 9.99107747,9.53108598 9.99107747,12.0069391 C9.99107747,14.4886523 8.22598271,15.9683042 6.52005938,15.9683042" id="Fill-9"></path>
                        <path d="M49.9528194,5.12670437 C48.2221825,5.12670437 47.0358587,5.86213531 46.339696,6.4850541 L46.2542807,6.4850541 C46.2542807,6.4850541 46.339696,5.76661719 46.339696,5.03294426 L46.339696,2.54888709 C46.339696,1.21163339 45.723366,0.564102564 44.4527435,0.564102564 L43.2820513,0.564102564 L43.2820513,12.0713992 C43.434459,16.2501705 45.9215518,18.8461538 49.7680321,18.8461538 C53.320304,18.8461538 56,15.8985701 56,11.9858431 C56,8.07428813 53.4001366,5.12670437 49.9528194,5.12670437 M49.4431189,15.9683042 L49.4431189,15.9683042 C47.4763337,15.9683042 46.2191097,13.9682836 46.2191097,12.0309652 C46.2191097,9.09217142 48.0156226,8.04616009 49.4877805,8.04616009 C51.1748724,8.04616009 52.9161166,9.53108598 52.9161166,12.0069391 C52.9161166,14.4886523 51.1514251,15.9683042 49.4431189,15.9683042" id="Fill-11"></path>
                        <path d="M39.0723611,16.1068531 L36.5815392,11.9388399 L38.7017563,8.59238065 C39.0885715,7.98167842 39.3893036,7.54639065 39.710718,7.08216246 C39.9443723,6.75082401 40.1791446,6.41357935 40.4429839,6.00959451 L40.8907281,5.33333333 L38.5787803,5.33333333 C37.2780302,5.33333333 36.7928342,5.62864389 36.0991381,6.84414215 C36.0991381,6.84414215 35.1645209,8.47189394 35.0342782,8.69928307 C34.9129792,8.92490034 34.5915648,9.68089537 34.5820621,9.70097649 L34.4993328,9.70097649 C34.4993328,9.70097649 34.2081034,9.00109046 34.0337012,8.69928307 C33.8637708,8.3980663 32.9593386,6.83882656 32.9593386,6.83882656 C32.2259548,5.62864389 31.7362869,5.33333333 30.4852862,5.33333333 L28.1794872,5.33333333 L28.6456778,6.01431948 C29.2052184,6.84414215 29.5249558,7.33199519 30.005121,8.06554662 L32.4758195,11.9388399 L30.3774027,15.5882878 C29.9905875,16.1919026 29.6892964,16.6348684 29.3656461,17.0943716 C29.1331097,17.4333881 28.9000144,17.7653172 28.6328212,18.1639865 L28.1895488,18.8461538 L30.5014966,18.8461538 C31.7994518,18.8461538 32.2863248,18.5532058 32.9805799,17.3394794 C32.9805799,17.3394794 33.9129612,15.7123182 34.0415269,15.4825666 C34.1645029,15.2569493 34.4887122,14.4985918 34.4993328,14.4832357 L34.5820621,14.4832357 C34.5820621,14.4832357 34.8682607,15.1783967 35.040986,15.4825666 C35.2153882,15.7814209 36.1198204,17.3442043 36.1198204,17.3442043 C36.8548812,18.5532058 37.3411951,18.8461538 38.5921959,18.8461538 L40.8974359,18.8461538 L40.4278914,18.1639865 C39.8733817,17.3394794 39.5514083,16.8492639 39.0723611,16.1068531" id="Fill-13"></path>
                        <path d="M68.5623912,15.0263222 C68.1949903,15.0263222 67.8593329,15.1763684 67.5283782,15.3229521 L67.4819387,15.3443048 C66.7982791,15.6507455 65.96472,16.0264382 64.97891,16.0264382 C63.2976836,16.0264382 61.1267853,15.014203 60.935149,12.7935183 L70.2165769,12.7935183 C70.2747732,12.3687719 70.3076923,11.7489654 70.3076923,11.4188636 C70.3076923,7.77966458 67.8446368,5.33333333 64.2064864,5.33333333 C60.3132128,5.33333333 57.5897436,8.11496028 57.5897436,12.089455 C57.5897436,16.0056626 60.8152294,18.8461538 64.8595782,18.8461538 C68.1409089,18.8461538 69.9767376,16.8863188 70.0555083,16.807833 L70.2747732,16.5937285 L70.1430967,16.3207598 C69.8415341,15.7217289 69.4053558,15.0263222 68.5623912,15.0263222 M64.430454,7.80447992 L64.430454,7.80447992 C65.8048272,7.80447992 67.2491535,8.63088859 67.2491535,10.3841215 L60.9645411,10.3841215 C61.1785153,9.03889902 62.5781657,7.80447992 64.430454,7.80447992" id="Fill-15"></path>
                    </g>
                    <g id="Group">
                        <path d="M12.9659303,24.8928877 C14.3645602,23.4972426 16.6297579,23.4972426 18.0266395,24.8928877 C19.4270176,26.2879503 19.4270176,28.5538349 18.0266395,29.950645 C16.6297579,31.349785 14.3645602,31.349785 12.9659303,29.950645 C11.5754591,28.5538349 11.5754591,26.2879503 12.9659303,24.8928877" id="Fill-33" fill="#ED1651"></path>
                        <path d="M18.5331886,18.5343823 C17.1385098,19.9289044 17.1385098,22.1934732 18.5331886,23.5955711 C19.9313629,24.9895105 22.1975704,24.9895105 23.5928319,23.5955711 C24.9904236,22.1934732 24.9904236,19.9289044 23.5928319,18.5343823 C22.1975704,17.1381119 19.9313629,17.1381119 18.5331886,18.5343823" id="Fill-35" fill="#ED1651"></path>
                        <path d="M24.894934,12.9717503 C23.4965605,14.3641556 23.4965605,16.631038 24.894934,18.025191 C26.2915596,19.4275004 28.5557595,19.4275004 29.9547158,18.025191 C31.3484281,16.631038 31.3484281,14.3641556 29.9547158,12.9717503 C28.5557595,11.5735191 26.2915596,11.5735191 24.894934,12.9717503" id="Fill-37" fill="#ED1651"></path>
                        <path d="M6.61496976,18.5343823 C5.2138135,19.9289044 5.2138135,22.1958042 6.61496976,23.5955711 C8.00972008,24.9895105 10.2739327,24.9895105 11.6710124,23.5955711 C13.0669275,22.1958042 13.0669275,19.9289044 11.6710124,18.5343823 C10.2739327,17.1381119 8.00972008,17.1381119 6.61496976,18.5343823" id="Fill-39" fill="#ED1651"></path>
                        <path d="M1.0483746,12.9717503 C-0.349458199,14.3688164 -0.349458199,16.631038 1.0483746,18.025191 C2.44329524,19.4275004 4.70894923,19.4275004 6.10503473,18.025191 C7.50344996,16.631038 7.50344996,14.3688164 6.10503473,12.9717503 C4.70894923,11.5735191 2.44329524,11.5735191 1.0483746,12.9717503" id="Fill-41" fill="#ED1651"></path>
                        <path d="M12.9657605,12.9717503 C11.5755157,14.3641556 11.5755157,16.631038 12.9657605,18.025191 C14.3641625,19.4275004 16.6289912,19.4275004 18.0303065,18.025191 C19.4257953,16.631038 19.4257953,14.3641556 18.0303065,12.9717503 C16.6289912,11.5735191 14.3641625,11.5735191 12.9657605,12.9717503" id="Fill-43" fill="#ED1651"></path>
                        <path d="M6.61496976,6.61227501 C5.2138135,8.01042084 5.2138135,10.2730868 6.61496976,11.6723978 C8.00972008,13.0664657 10.2739327,13.0664657 11.6710124,11.6723978 C13.0669275,10.2730868 13.0669275,8.01042084 11.6710124,6.61227501 C10.2739327,5.21471175 8.00972008,5.21471175 6.61496976,6.61227501" id="Fill-45" fill="#ED1651"></path>
                        <path d="M18.5331886,11.6723978 C19.9313629,13.0664657 22.1975704,13.0664657 23.5928319,11.6723978 C24.9904236,10.2730868 24.9904236,8.01042084 23.5928319,6.61227501 C22.1975704,5.21471175 19.9313629,5.21471175 18.5331886,6.61227501 C17.1385098,8.01042084 17.1385098,10.2730868 18.5331886,11.6723978 Z" id="Fill-47" fill="#ED1651"></path>
                        <path d="M12.9657605,1.04858802 C14.3641625,-0.349529341 16.6289912,-0.349529341 18.0303065,1.04858802 C19.4257953,2.44670539 19.4257953,4.70874277 18.0303065,6.10569504 C16.6289912,7.50322986 14.3641625,7.50322986 12.9657605,6.10569504 C11.5755157,4.70874277 11.5755157,2.44670539 12.9657605,1.04858802" id="Fill-49" fill="#A6CE39"></path>
                    </g>
                </g>
            </g>
        </g>
    </g>
</svg>